<mxfile host="app.diagrams.net" agent="Mozilla/5.0 (Macintosh; Intel Mac OS X 10_15_7) AppleWebKit/537.36 (KHTML, like Gecko) Chrome/133.0.0.0 Safari/537.36" version="26.0.5">
  <diagram name="Page-1" id="9_rbXQzbuap2uXvsenaV">
    <mxGraphModel dx="1562" dy="789" grid="1" gridSize="10" guides="1" tooltips="1" connect="1" arrows="1" fold="1" page="0" pageScale="1" pageWidth="850" pageHeight="1100" math="0" shadow="0">
      <root>
        <mxCell id="0" />
        <mxCell id="1" parent="0" />
        <mxCell id="aOHqKR-cxFEY5PxNS0s0-2" value="&lt;font style=&quot;font-size: 14px;&quot;&gt;&lt;b&gt;Order Processing (Webhooks)&lt;/b&gt;&lt;/font&gt;" style="text;html=1;align=center;verticalAlign=middle;whiteSpace=wrap;rounded=0;" vertex="1" parent="1">
          <mxGeometry x="50" y="90" width="150" height="30" as="geometry" />
        </mxCell>
        <mxCell id="aOHqKR-cxFEY5PxNS0s0-3" value="" style="sketch=0;points=[[0,0,0],[0.25,0,0],[0.5,0,0],[0.75,0,0],[1,0,0],[0,1,0],[0.25,1,0],[0.5,1,0],[0.75,1,0],[1,1,0],[0,0.25,0],[0,0.5,0],[0,0.75,0],[1,0.25,0],[1,0.5,0],[1,0.75,0]];outlineConnect=0;fontColor=#232F3E;fillColor=#E7157B;strokeColor=#ffffff;dashed=0;verticalLabelPosition=bottom;verticalAlign=top;align=center;html=1;fontSize=12;fontStyle=0;aspect=fixed;shape=mxgraph.aws4.resourceIcon;resIcon=mxgraph.aws4.eventbridge;" vertex="1" parent="1">
          <mxGeometry x="80" y="140" width="78" height="78" as="geometry" />
        </mxCell>
        <mxCell id="aOHqKR-cxFEY5PxNS0s0-9" style="edgeStyle=orthogonalEdgeStyle;rounded=0;orthogonalLoop=1;jettySize=auto;html=1;" edge="1" parent="1" source="aOHqKR-cxFEY5PxNS0s0-4" target="aOHqKR-cxFEY5PxNS0s0-5">
          <mxGeometry relative="1" as="geometry" />
        </mxCell>
        <mxCell id="aOHqKR-cxFEY5PxNS0s0-4" value="" style="sketch=0;points=[[0,0,0],[0.25,0,0],[0.5,0,0],[0.75,0,0],[1,0,0],[0,1,0],[0.25,1,0],[0.5,1,0],[0.75,1,0],[1,1,0],[0,0.25,0],[0,0.5,0],[0,0.75,0],[1,0.25,0],[1,0.5,0],[1,0.75,0]];outlineConnect=0;fontColor=#232F3E;fillColor=#E7157B;strokeColor=#ffffff;dashed=0;verticalLabelPosition=bottom;verticalAlign=top;align=center;html=1;fontSize=12;fontStyle=0;aspect=fixed;shape=mxgraph.aws4.resourceIcon;resIcon=mxgraph.aws4.sqs;" vertex="1" parent="1">
          <mxGeometry x="300" y="140" width="78" height="78" as="geometry" />
        </mxCell>
        <mxCell id="aOHqKR-cxFEY5PxNS0s0-5" value="DLQ" style="sketch=0;points=[[0,0,0],[0.25,0,0],[0.5,0,0],[0.75,0,0],[1,0,0],[0,1,0],[0.25,1,0],[0.5,1,0],[0.75,1,0],[1,1,0],[0,0.25,0],[0,0.5,0],[0,0.75,0],[1,0.25,0],[1,0.5,0],[1,0.75,0]];outlineConnect=0;fontColor=#232F3E;fillColor=#E7157B;strokeColor=#ffffff;dashed=0;verticalLabelPosition=bottom;verticalAlign=top;align=center;html=1;fontSize=12;fontStyle=0;aspect=fixed;shape=mxgraph.aws4.resourceIcon;resIcon=mxgraph.aws4.sqs;" vertex="1" parent="1">
          <mxGeometry x="300" y="280" width="78" height="78" as="geometry" />
        </mxCell>
        <mxCell id="aOHqKR-cxFEY5PxNS0s0-6" value="" style="sketch=0;points=[[0,0,0],[0.25,0,0],[0.5,0,0],[0.75,0,0],[1,0,0],[0,1,0],[0.25,1,0],[0.5,1,0],[0.75,1,0],[1,1,0],[0,0.25,0],[0,0.5,0],[0,0.75,0],[1,0.25,0],[1,0.5,0],[1,0.75,0]];outlineConnect=0;fontColor=#232F3E;fillColor=#ED7100;strokeColor=#ffffff;dashed=0;verticalLabelPosition=bottom;verticalAlign=top;align=center;html=1;fontSize=12;fontStyle=0;aspect=fixed;shape=mxgraph.aws4.resourceIcon;resIcon=mxgraph.aws4.lambda;" vertex="1" parent="1">
          <mxGeometry x="510" y="140" width="78" height="78" as="geometry" />
        </mxCell>
        <mxCell id="aOHqKR-cxFEY5PxNS0s0-7" style="edgeStyle=orthogonalEdgeStyle;rounded=0;orthogonalLoop=1;jettySize=auto;html=1;entryX=0;entryY=0.5;entryDx=0;entryDy=0;entryPerimeter=0;" edge="1" parent="1" source="aOHqKR-cxFEY5PxNS0s0-3" target="aOHqKR-cxFEY5PxNS0s0-4">
          <mxGeometry relative="1" as="geometry" />
        </mxCell>
        <mxCell id="aOHqKR-cxFEY5PxNS0s0-18" value="Events From&lt;div&gt;Shopify&lt;/div&gt;" style="edgeLabel;html=1;align=center;verticalAlign=middle;resizable=0;points=[];" vertex="1" connectable="0" parent="aOHqKR-cxFEY5PxNS0s0-7">
          <mxGeometry x="-0.1099" y="4" relative="1" as="geometry">
            <mxPoint as="offset" />
          </mxGeometry>
        </mxCell>
        <mxCell id="aOHqKR-cxFEY5PxNS0s0-8" style="edgeStyle=orthogonalEdgeStyle;rounded=0;orthogonalLoop=1;jettySize=auto;html=1;entryX=0;entryY=0.5;entryDx=0;entryDy=0;entryPerimeter=0;" edge="1" parent="1" source="aOHqKR-cxFEY5PxNS0s0-4" target="aOHqKR-cxFEY5PxNS0s0-6">
          <mxGeometry relative="1" as="geometry" />
        </mxCell>
        <mxCell id="aOHqKR-cxFEY5PxNS0s0-10" value="&lt;span style=&quot;font-size: 14px;&quot;&gt;&lt;b&gt;Crons&lt;/b&gt;&lt;/span&gt;" style="text;html=1;align=center;verticalAlign=middle;whiteSpace=wrap;rounded=0;" vertex="1" parent="1">
          <mxGeometry x="40" y="430" width="150" height="30" as="geometry" />
        </mxCell>
        <mxCell id="aOHqKR-cxFEY5PxNS0s0-11" value="" style="sketch=0;points=[[0,0,0],[0.25,0,0],[0.5,0,0],[0.75,0,0],[1,0,0],[0,1,0],[0.25,1,0],[0.5,1,0],[0.75,1,0],[1,1,0],[0,0.25,0],[0,0.5,0],[0,0.75,0],[1,0.25,0],[1,0.5,0],[1,0.75,0]];outlineConnect=0;fontColor=#232F3E;fillColor=#E7157B;strokeColor=#ffffff;dashed=0;verticalLabelPosition=bottom;verticalAlign=top;align=center;html=1;fontSize=12;fontStyle=0;aspect=fixed;shape=mxgraph.aws4.resourceIcon;resIcon=mxgraph.aws4.eventbridge;" vertex="1" parent="1">
          <mxGeometry x="80" y="480" width="78" height="78" as="geometry" />
        </mxCell>
        <mxCell id="aOHqKR-cxFEY5PxNS0s0-16" value="Schedule" style="edgeStyle=orthogonalEdgeStyle;rounded=0;orthogonalLoop=1;jettySize=auto;html=1;entryX=0;entryY=0.5;entryDx=0;entryDy=0;entryPerimeter=0;" edge="1" parent="1" source="aOHqKR-cxFEY5PxNS0s0-11">
          <mxGeometry relative="1" as="geometry">
            <mxPoint x="300" y="519" as="targetPoint" />
          </mxGeometry>
        </mxCell>
        <mxCell id="aOHqKR-cxFEY5PxNS0s0-20" value="Crons" style="sketch=0;points=[[0,0,0],[0.25,0,0],[0.5,0,0],[0.75,0,0],[1,0,0],[0,1,0],[0.25,1,0],[0.5,1,0],[0.75,1,0],[1,1,0],[0,0.25,0],[0,0.5,0],[0,0.75,0],[1,0.25,0],[1,0.5,0],[1,0.75,0]];outlineConnect=0;fontColor=#232F3E;fillColor=#ED7100;strokeColor=#ffffff;dashed=0;verticalLabelPosition=bottom;verticalAlign=top;align=center;html=1;fontSize=12;fontStyle=0;aspect=fixed;shape=mxgraph.aws4.resourceIcon;resIcon=mxgraph.aws4.ecs;" vertex="1" parent="1">
          <mxGeometry x="300" y="480" width="78" height="78" as="geometry" />
        </mxCell>
        <mxCell id="aOHqKR-cxFEY5PxNS0s0-21" value="Schedule Uber&lt;div&gt;Sync to Ops Data mart&lt;/div&gt;&lt;div&gt;Send emails&lt;/div&gt;&lt;div&gt;etc&lt;/div&gt;" style="text;html=1;align=left;verticalAlign=middle;whiteSpace=wrap;rounded=0;" vertex="1" parent="1">
          <mxGeometry x="600" y="150" width="140" height="50" as="geometry" />
        </mxCell>
        <mxCell id="aOHqKR-cxFEY5PxNS0s0-22" value="Sync products&lt;br&gt;&lt;div&gt;Sync to Ops Data mart&lt;/div&gt;&lt;div&gt;&lt;span style=&quot;background-color: transparent; color: light-dark(rgb(0, 0, 0), rgb(255, 255, 255));&quot;&gt;Sync B2B Customers&lt;/span&gt;&lt;/div&gt;&lt;div&gt;&lt;span style=&quot;background-color: transparent; color: light-dark(rgb(0, 0, 0), rgb(255, 255, 255));&quot;&gt;etc&lt;/span&gt;&lt;/div&gt;" style="text;html=1;align=left;verticalAlign=middle;whiteSpace=wrap;rounded=0;" vertex="1" parent="1">
          <mxGeometry x="390" y="490" width="140" height="50" as="geometry" />
        </mxCell>
        <mxCell id="aOHqKR-cxFEY5PxNS0s0-23" value="&lt;span style=&quot;font-size: 14px;&quot;&gt;&lt;b&gt;Shopify Admin App&lt;/b&gt;&lt;/span&gt;" style="text;html=1;align=center;verticalAlign=middle;whiteSpace=wrap;rounded=0;" vertex="1" parent="1">
          <mxGeometry x="70" y="660" width="150" height="30" as="geometry" />
        </mxCell>
        <mxCell id="aOHqKR-cxFEY5PxNS0s0-30" style="edgeStyle=orthogonalEdgeStyle;rounded=0;orthogonalLoop=1;jettySize=auto;html=1;" edge="1" parent="1" source="aOHqKR-cxFEY5PxNS0s0-28" target="aOHqKR-cxFEY5PxNS0s0-29">
          <mxGeometry relative="1" as="geometry" />
        </mxCell>
        <mxCell id="aOHqKR-cxFEY5PxNS0s0-28" value="" style="sketch=0;outlineConnect=0;fontColor=#232F3E;gradientColor=none;fillColor=#8C4FFF;strokeColor=none;dashed=0;verticalLabelPosition=bottom;verticalAlign=top;align=center;html=1;fontSize=12;fontStyle=0;aspect=fixed;pointerEvents=1;shape=mxgraph.aws4.application_load_balancer;" vertex="1" parent="1">
          <mxGeometry x="86" y="720" width="78" height="78" as="geometry" />
        </mxCell>
        <mxCell id="aOHqKR-cxFEY5PxNS0s0-29" value="Shopify App" style="sketch=0;points=[[0,0,0],[0.25,0,0],[0.5,0,0],[0.75,0,0],[1,0,0],[0,1,0],[0.25,1,0],[0.5,1,0],[0.75,1,0],[1,1,0],[0,0.25,0],[0,0.5,0],[0,0.75,0],[1,0.25,0],[1,0.5,0],[1,0.75,0]];outlineConnect=0;fontColor=#232F3E;fillColor=#ED7100;strokeColor=#ffffff;dashed=0;verticalLabelPosition=bottom;verticalAlign=top;align=center;html=1;fontSize=12;fontStyle=0;aspect=fixed;shape=mxgraph.aws4.resourceIcon;resIcon=mxgraph.aws4.ecs;" vertex="1" parent="1">
          <mxGeometry x="280" y="720" width="78" height="78" as="geometry" />
        </mxCell>
        <mxCell id="aOHqKR-cxFEY5PxNS0s0-31" value="" style="sketch=0;outlineConnect=0;fontColor=#232F3E;gradientColor=none;fillColor=#ED7100;strokeColor=none;dashed=0;verticalLabelPosition=bottom;verticalAlign=top;align=center;html=1;fontSize=12;fontStyle=0;aspect=fixed;pointerEvents=1;shape=mxgraph.aws4.auto_scaling2;" vertex="1" parent="1">
          <mxGeometry x="358" y="690" width="48" height="48" as="geometry" />
        </mxCell>
        <mxCell id="aOHqKR-cxFEY5PxNS0s0-32" value="" style="sketch=0;points=[[0,0,0],[0.25,0,0],[0.5,0,0],[0.75,0,0],[1,0,0],[0,1,0],[0.25,1,0],[0.5,1,0],[0.75,1,0],[1,1,0],[0,0.25,0],[0,0.5,0],[0,0.75,0],[1,0.25,0],[1,0.5,0],[1,0.75,0]];outlineConnect=0;fontColor=#232F3E;fillColor=#C925D1;strokeColor=#ffffff;dashed=0;verticalLabelPosition=bottom;verticalAlign=top;align=center;html=1;fontSize=12;fontStyle=0;aspect=fixed;shape=mxgraph.aws4.resourceIcon;resIcon=mxgraph.aws4.rds;" vertex="1" parent="1">
          <mxGeometry x="640" y="830" width="78" height="78" as="geometry" />
        </mxCell>
        <mxCell id="aOHqKR-cxFEY5PxNS0s0-33" value="&lt;span style=&quot;font-size: 14px;&quot;&gt;&lt;b&gt;API&lt;/b&gt;&lt;/span&gt;" style="text;html=1;align=center;verticalAlign=middle;whiteSpace=wrap;rounded=0;" vertex="1" parent="1">
          <mxGeometry x="50" y="970" width="150" height="30" as="geometry" />
        </mxCell>
        <mxCell id="aOHqKR-cxFEY5PxNS0s0-34" value="" style="sketch=0;outlineConnect=0;fontColor=#232F3E;gradientColor=none;fillColor=#8C4FFF;strokeColor=none;dashed=0;verticalLabelPosition=bottom;verticalAlign=top;align=center;html=1;fontSize=12;fontStyle=0;aspect=fixed;pointerEvents=1;shape=mxgraph.aws4.application_load_balancer;" vertex="1" parent="1">
          <mxGeometry x="86" y="1030" width="78" height="78" as="geometry" />
        </mxCell>
        <mxCell id="aOHqKR-cxFEY5PxNS0s0-35" value="API Gateway" style="sketch=0;points=[[0,0,0],[0.25,0,0],[0.5,0,0],[0.75,0,0],[1,0,0],[0,1,0],[0.25,1,0],[0.5,1,0],[0.75,1,0],[1,1,0],[0,0.25,0],[0,0.5,0],[0,0.75,0],[1,0.25,0],[1,0.5,0],[1,0.75,0]];outlineConnect=0;fontColor=#232F3E;fillColor=#ED7100;strokeColor=#ffffff;dashed=0;verticalLabelPosition=bottom;verticalAlign=top;align=center;html=1;fontSize=12;fontStyle=0;aspect=fixed;shape=mxgraph.aws4.resourceIcon;resIcon=mxgraph.aws4.ecs;" vertex="1" parent="1">
          <mxGeometry x="260" y="1030" width="78" height="78" as="geometry" />
        </mxCell>
        <mxCell id="aOHqKR-cxFEY5PxNS0s0-36" value="" style="sketch=0;outlineConnect=0;fontColor=#232F3E;gradientColor=none;fillColor=#ED7100;strokeColor=none;dashed=0;verticalLabelPosition=bottom;verticalAlign=top;align=center;html=1;fontSize=12;fontStyle=0;aspect=fixed;pointerEvents=1;shape=mxgraph.aws4.auto_scaling2;" vertex="1" parent="1">
          <mxGeometry x="338" y="990" width="48" height="48" as="geometry" />
        </mxCell>
        <mxCell id="aOHqKR-cxFEY5PxNS0s0-37" value="Business logic&amp;nbsp;&lt;div&gt;services&lt;/div&gt;" style="sketch=0;points=[[0,0,0],[0.25,0,0],[0.5,0,0],[0.75,0,0],[1,0,0],[0,1,0],[0.25,1,0],[0.5,1,0],[0.75,1,0],[1,1,0],[0,0.25,0],[0,0.5,0],[0,0.75,0],[1,0.25,0],[1,0.5,0],[1,0.75,0]];outlineConnect=0;fontColor=#232F3E;fillColor=#ED7100;strokeColor=#ffffff;dashed=0;verticalLabelPosition=bottom;verticalAlign=top;align=center;html=1;fontSize=12;fontStyle=0;aspect=fixed;shape=mxgraph.aws4.resourceIcon;resIcon=mxgraph.aws4.ecs;" vertex="1" parent="1">
          <mxGeometry x="460" y="1030" width="78" height="78" as="geometry" />
        </mxCell>
        <mxCell id="aOHqKR-cxFEY5PxNS0s0-38" value="" style="sketch=0;outlineConnect=0;fontColor=#232F3E;gradientColor=none;fillColor=#ED7100;strokeColor=none;dashed=0;verticalLabelPosition=bottom;verticalAlign=top;align=center;html=1;fontSize=12;fontStyle=0;aspect=fixed;pointerEvents=1;shape=mxgraph.aws4.auto_scaling2;" vertex="1" parent="1">
          <mxGeometry x="542" y="990" width="48" height="48" as="geometry" />
        </mxCell>
        <mxCell id="aOHqKR-cxFEY5PxNS0s0-39" value="&lt;span style=&quot;font-size: 14px;&quot;&gt;&lt;b&gt;Ports and Adapters&lt;/b&gt;&lt;/span&gt;&lt;div&gt;&lt;span style=&quot;font-size: 14px;&quot;&gt;&lt;b&gt;Pattern&lt;/b&gt;&lt;/span&gt;&lt;/div&gt;" style="text;html=1;align=center;verticalAlign=middle;whiteSpace=wrap;rounded=0;" vertex="1" parent="1">
          <mxGeometry x="50" y="1300" width="150" height="30" as="geometry" />
        </mxCell>
        <mxCell id="aOHqKR-cxFEY5PxNS0s0-48" style="edgeStyle=orthogonalEdgeStyle;rounded=0;orthogonalLoop=1;jettySize=auto;html=1;entryX=0;entryY=0.5;entryDx=0;entryDy=0;" edge="1" parent="1" source="aOHqKR-cxFEY5PxNS0s0-40" target="aOHqKR-cxFEY5PxNS0s0-41">
          <mxGeometry relative="1" as="geometry" />
        </mxCell>
        <mxCell id="aOHqKR-cxFEY5PxNS0s0-40" value="Sync B2B Customers to Shopify" style="rounded=0;whiteSpace=wrap;html=1;" vertex="1" parent="1">
          <mxGeometry x="71" y="1360" width="120" height="140" as="geometry" />
        </mxCell>
        <mxCell id="aOHqKR-cxFEY5PxNS0s0-41" value="B2B Customers Interfase" style="rounded=0;whiteSpace=wrap;html=1;" vertex="1" parent="1">
          <mxGeometry x="256" y="1360" width="100" height="140" as="geometry" />
        </mxCell>
        <mxCell id="aOHqKR-cxFEY5PxNS0s0-46" style="edgeStyle=orthogonalEdgeStyle;rounded=0;orthogonalLoop=1;jettySize=auto;html=1;entryX=1;entryY=0.25;entryDx=0;entryDy=0;" edge="1" parent="1" source="aOHqKR-cxFEY5PxNS0s0-42" target="aOHqKR-cxFEY5PxNS0s0-41">
          <mxGeometry relative="1" as="geometry" />
        </mxCell>
        <mxCell id="aOHqKR-cxFEY5PxNS0s0-42" value="B2B Customers Ops Data Mart&lt;div&gt;Adapter&lt;/div&gt;" style="rounded=0;whiteSpace=wrap;html=1;" vertex="1" parent="1">
          <mxGeometry x="449" y="1290" width="100" height="140" as="geometry" />
        </mxCell>
        <mxCell id="aOHqKR-cxFEY5PxNS0s0-47" style="edgeStyle=orthogonalEdgeStyle;rounded=0;orthogonalLoop=1;jettySize=auto;html=1;entryX=1;entryY=0.75;entryDx=0;entryDy=0;" edge="1" parent="1" source="aOHqKR-cxFEY5PxNS0s0-43" target="aOHqKR-cxFEY5PxNS0s0-41">
          <mxGeometry relative="1" as="geometry" />
        </mxCell>
        <mxCell id="aOHqKR-cxFEY5PxNS0s0-43" value="B2B Customers&lt;div&gt;JF GSheet&lt;/div&gt;&lt;div&gt;Adapter&lt;/div&gt;" style="rounded=0;whiteSpace=wrap;html=1;" vertex="1" parent="1">
          <mxGeometry x="449" y="1440" width="100" height="140" as="geometry" />
        </mxCell>
      </root>
    </mxGraphModel>
  </diagram>
</mxfile>
